<?xml version="1.0" standalone="no"?>
<!DOCTYPE svg PUBLIC "-//W3C//DTD SVG 20010904//EN"
 "http://www.w3.org/TR/2001/REC-SVG-20010904/DTD/svg10.dtd">
<svg version="1.0" xmlns="http://www.w3.org/2000/svg"
 width="1024.000000pt" height="1024.000000pt" viewBox="0 0 1024.000000 1024.000000"
 preserveAspectRatio="xMidYMid meet">

<g transform="translate(0.000000,1024.000000) scale(0.100000,-0.100000)"
fill="#000000" stroke="none">
<path d="M0 5120 l0 -5120 5120 0 5120 0 0 5120 0 5120 -5120 0 -5120 0 0
-5120z m5281 3419 c112 -56 353 -175 534 -264 182 -89 562 -277 845 -417 283
-140 559 -274 613 -298 87 -40 97 -47 97 -71 0 -33 -24 -39 -163 -39 -124 0
-18 -48 -1226 552 -497 246 -910 448 -918 448 -8 0 -454 -219 -991 -486 -538
-267 -993 -492 -1012 -498 -62 -23 -128 -28 -205 -15 -72 11 -75 13 -75 39 0
25 11 32 133 91 72 35 456 226 852 424 727 364 1281 635 1301 635 6 0 103 -46
215 -101z m344 -766 c302 -172 579 -335 613 -360 l32 -24 0 -624 c0 -516 -2
-626 -14 -637 -7 -7 -107 -75 -220 -151 -114 -77 -243 -165 -286 -198 -79 -58
-81 -59 -148 -59 -37 0 -110 9 -162 20 -81 17 -134 20 -355 20 -190 -1 -278
-5 -325 -15 -36 -8 -113 -18 -172 -21 l-107 -7 -73 55 c-40 30 -171 121 -291
202 -119 82 -220 153 -223 158 -9 14 -17 1096 -9 1195 l7 83 166 99 c145 85
518 297 607 344 26 14 83 16 410 17 l379 0 171 -97z m-3215 -335 l0 -231 -52
-51 c-29 -28 -101 -88 -160 -134 l-108 -83 -1 -322 c0 -177 -4 -344 -9 -372
-4 -27 -8 -40 -9 -27 -1 21 -5 22 -75 22 -50 0 -76 -4 -80 -12 -2 -7 -4 237
-3 542 l2 555 33 48 c19 26 55 61 80 78 80 51 367 219 375 219 4 0 7 -104 7
-232z m5600 80 c74 -43 148 -93 164 -111 58 -66 56 -43 55 -709 0 -337 -3
-608 -5 -602 -6 13 -104 -3 -104 -17 0 -5 -11 -9 -25 -9 -17 0 -26 -6 -27 -17
-7 -79 -16 191 -17 507 l-1 386 -115 89 c-64 49 -134 108 -155 132 l-40 43 -1
147 c-1 82 -3 182 -5 223 -1 41 0 78 3 83 5 8 52 -17 273 -145z m-4452 -194
c53 -37 47 -110 -10 -140 -38 -20 -82 -10 -108 23 -28 36 -25 69 9 104 33 33
74 38 109 13z m3121 1 c67 -34 51 -132 -24 -151 -64 -16 -129 54 -103 111 13
28 51 54 81 55 10 0 31 -7 46 -15z m-3439 -455 l0 -220 -140 0 -140 0 0 220 0
220 140 0 140 0 0 -220z m3950 0 l0 -220 -135 0 -135 0 0 220 0 220 135 0 135
0 0 -220z m-4610 -125 l0 -325 -55 0 -55 0 0 325 0 325 55 0 55 0 0 -325z
m5090 1 c0 -179 -3 -327 -7 -329 -5 -2 -27 -2 -50 1 l-43 4 2 322 3 321 5
-320 5 -320 3 323 2 322 40 0 40 0 0 -324z m-4075 240 c70 -30 96 -122 52
-187 -93 -137 -298 -6 -221 142 27 53 102 73 169 45z m3082 -6 c65 -39 83
-103 49 -169 -49 -94 -179 -93 -227 1 -24 47 -24 75 1 116 41 67 116 89 177
52z m-3116 -389 c58 -59 23 -141 -61 -141 -50 0 -100 42 -100 85 0 40 50 85
95 85 27 0 44 -8 66 -29z m3163 8 c39 -31 37 -88 -5 -123 -43 -36 -91 -35
-130 3 -36 36 -37 70 -3 110 21 26 33 31 69 31 28 0 51 -7 69 -21z m-3694
-439 c0 -220 -4 -400 -8 -400 -18 0 -32 776 -15 793 3 4 10 7 15 7 4 0 8 -180
8 -400z m4118 5 c2 -385 0 -417 -30 -399 -9 6 -11 778 -1 787 25 25 28 -16 31
-388z m-430 128 c51 -32 46 -110 -9 -138 -45 -24 -87 -19 -120 14 -83 84 26
189 129 124z m-3153 -8 c36 -35 35 -96 -1 -124 -41 -32 -98 -28 -135 8 -40 40
-39 81 2 115 41 35 100 36 134 1z m-970 -23 l80 -28 0 -144 0 -145 -80 -57
c-63 -45 -88 -58 -117 -58 l-38 0 0 230 0 230 38 0 c20 0 73 -13 117 -28z
m5095 -202 l0 -230 -29 0 c-17 0 -32 4 -35 9 -3 5 -30 23 -59 39 -97 55 -98
58 -95 218 l3 139 75 27 c41 15 90 27 108 27 l32 1 0 -230z m-4134 -74 c34
-28 38 -84 10 -115 -41 -45 -124 -34 -152 20 -42 83 70 158 142 95z m3159 -1
c37 -36 34 -86 -6 -119 -41 -35 -83 -34 -120 3 -17 18 -29 40 -29 56 0 16 12
38 29 56 38 38 91 40 126 4z m-4765 -255 c47 -6 95 -13 108 -16 l22 -4 0 -865
c0 -740 -2 -865 -14 -865 -8 0 -21 -3 -30 -6 -14 -6 -16 29 -16 345 l0 351
-70 0 -70 0 0 -359 c0 -198 -3 -362 -7 -364 -5 -2 -20 -7 -35 -11 l-28 -6 0
911 0 911 28 -6 c15 -3 65 -10 112 -16z m6210 -319 l0 -339 -46 -63 c-26 -35
-67 -85 -92 -111 l-45 -47 63 -68 c34 -37 75 -87 91 -110 l29 -42 0 -336 0
-337 -22 6 c-13 3 -29 6 -35 6 -10 0 -13 70 -13 316 l0 316 -36 44 c-20 24
-40 41 -45 38 -5 -3 -9 1 -9 8 0 8 -19 32 -42 53 -24 22 -37 33 -30 25 14 -16
16 -34 3 -26 -4 3 -9 -28 -10 -69 -2 -69 0 -75 19 -75 17 0 20 7 21 45 2 59 2
62 13 72 5 5 6 2 1 -6 -6 -10 -4 -12 6 -6 11 7 11 5 -1 -10 -9 -11 -10 -16 -2
-11 6 4 12 2 12 -3 0 -6 9 -11 20 -11 13 0 20 -6 19 -17 0 -11 -3 -13 -6 -5
-2 6 -11 12 -19 12 -9 0 -13 -4 -10 -9 4 -5 0 -12 -6 -15 -10 -5 -10 -7 0 -12
34 -16 -1 -64 -47 -64 l-31 0 -2 -177 c-3 -152 -5 -177 -18 -174 -8 2 -89 12
-180 22 -91 11 -203 25 -250 32 l-85 12 -6 245 c-3 135 -7 253 -8 263 -1 21
-17 22 -25 1 -3 -8 -2 -12 4 -9 6 3 10 1 10 -4 0 -15 -27 -14 -33 2 -3 7 -6 6
-6 -5 -1 -9 -6 -20 -13 -24 -7 -5 -8 -2 -3 7 5 8 -4 3 -18 -10 -15 -14 -27
-31 -27 -39 0 -9 -3 -12 -7 -8 -4 3 -22 -8 -40 -26 l-33 -32 0 -258 c0 -272 1
-269 -44 -252 -14 5 -16 39 -16 276 l0 269 29 43 c48 69 102 130 127 144 24
13 24 13 -42 74 -116 109 -115 103 -118 407 -2 257 -2 262 18 266 12 2 71 9
131 15 106 11 427 57 740 105 83 12 153 23 158 24 4 1 7 -152 7 -338z m-5710
255 l75 -11 33 -95 c34 -97 100 -324 168 -572 20 -76 40 -138 43 -138 3 0 4
176 3 391 l-4 391 29 -6 c15 -3 69 -8 118 -11 50 -4 98 -9 108 -11 16 -5 17
-49 17 -740 0 -646 -2 -734 -15 -734 -13 0 -15 37 -15 270 l0 270 -160 0 c-88
0 -160 -4 -160 -9 0 -5 15 -8 33 -6 17 1 24 0 14 -2 -9 -3 -15 -9 -12 -14 4
-5 -1 -12 -9 -15 -9 -3 -16 -13 -16 -21 0 -8 5 -11 12 -7 7 4 8 3 4 -5 -13
-20 4 -69 25 -74 19 -5 27 -27 9 -27 -5 0 -10 5 -10 12 0 6 -2 9 -5 6 -3 -3 1
-18 10 -34 18 -34 19 -48 4 -38 -7 4 -6 -3 2 -17 7 -13 13 -33 14 -44 3 -42
17 -105 23 -105 4 0 8 -19 9 -41 0 -23 6 -45 12 -49 7 -3 9 -14 5 -23 -4 -11
2 -24 17 -36 l24 -19 -38 -7 c-21 -4 -39 -6 -41 -4 -2 2 -34 126 -70 274 -37
149 -92 362 -124 475 l-57 205 -3 -492 -2 -493 -23 0 c-23 0 -189 -33 -226
-45 l-21 -6 0 841 0 842 63 -7 c34 -4 96 -12 137 -19z m1158 -117 l272 -13 0
-123 0 -123 -195 0 -195 0 0 -160 0 -160 165 0 166 0 -3 -117 -3 -118 -167 -3
-168 -2 0 -30 0 -30 -100 0 -100 0 0 -255 0 -255 -36 0 -37 0 7 46 c3 26 6
344 6 707 l0 659 58 -5 c31 -3 180 -11 330 -18z m3188 -40 c32 -20 74 -56 92
-79 l32 -42 0 -221 c0 -265 -2 -272 -115 -373 l-74 -66 68 -67 68 -66 23 -125
c12 -69 33 -167 46 -219 13 -52 22 -97 19 -99 -7 -7 -75 8 -73 16 8 32 -88
431 -109 455 -30 33 -81 47 -167 47 l-82 0 43 -162 c56 -211 81 -317 76 -322
-2 -2 -13 -2 -23 1 -21 6 -38 56 -95 281 -19 78 -43 160 -51 182 -16 39 -18
40 -63 40 l-46 0 3 -241 3 -241 -66 7 c-37 4 -98 7 -136 7 l-69 0 0 654 0 654
63 1 c34 1 121 5 192 9 72 4 187 7 256 6 l126 -1 59 -36z m-2496 -623 l-1
-644 -25 -5 c-13 -2 -27 -1 -30 4 -2 5 -15 4 -27 0 -12 -5 -58 -10 -102 -12
l-80 -4 -3 645 c-1 355 0 650 2 655 2 6 54 9 135 7 l131 -3 0 -643z m1628 530
c2 -81 -1 -112 -10 -118 -7 -4 -70 -8 -140 -8 l-128 0 0 -526 0 -525 -22 3
c-23 3 -23 4 -26 216 l-2 212 -75 0 -75 0 0 -210 0 -210 -30 0 -30 0 0 520 0
519 -137 3 -138 3 -3 112 -3 112 138 4 c76 1 260 3 408 2 l270 0 3 -109z
m-1198 -421 l0 -525 239 0 240 0 -6 -107 c-3 -60 -6 -109 -7 -110 -1 -1 -164
-3 -364 -5 l-362 -3 0 638 0 637 130 0 130 0 0 -525z m3235 -265 c3 -5 2 -10
-4 -10 -5 0 -13 5 -16 10 -3 6 -2 10 4 10 5 0 13 -4 16 -10z m-731 -58 c3 -5
-1 -9 -9 -9 -8 0 -12 4 -9 9 3 4 7 8 9 8 2 0 6 -4 9 -8z m-3847 -18 c-3 -3
-12 -4 -19 -1 -8 3 -5 6 6 6 11 1 17 -2 13 -5z m4668 -23 c3 -5 1 -12 -5 -16
-5 -3 -10 1 -10 9 0 18 6 21 15 7z m-5255 -291 c0 -5 -5 -10 -11 -10 -5 0 -7
5 -4 10 3 6 8 10 11 10 2 0 4 -4 4 -10z m2723 -87 c-7 -2 -21 -2 -30 0 -10 3
-4 5 12 5 17 0 24 -2 18 -5z m-2080 -70 c-7 -2 -19 -2 -25 0 -7 3 -2 5 12 5
14 0 19 -2 13 -5z m3284 1 c-3 -3 -12 -4 -19 -1 -8 3 -5 6 6 6 11 1 17 -2 13
-5z m-3379 -11 c-10 -2 -26 -2 -35 0 -10 3 -2 5 17 5 19 0 27 -2 18 -5z m3495
0 c-7 -2 -19 -2 -25 0 -7 3 -2 5 12 5 14 0 19 -2 13 -5z m-3940 -60 c-7 -2
-21 -2 -30 0 -10 3 -4 5 12 5 17 0 24 -2 18 -5z m4507 -8 c0 -10 -9 -15 -27
-14 -24 2 -25 2 -5 6 12 2 22 9 22 14 0 5 2 9 5 9 3 0 5 -7 5 -15z m-63 -1
c-3 -3 -12 -4 -19 -1 -8 3 -5 6 6 6 11 1 17 -2 13 -5z m206 -31 c-7 -2 -21 -2
-30 0 -10 3 -4 5 12 5 17 0 24 -2 18 -5z m82 -3 c-3 -5 2 -10 12 -11 11 0 13
-3 5 -6 -7 -3 -20 -2 -30 2 -14 5 -14 7 -2 15 19 12 23 12 15 0z m-2757 -172
l-3 -143 -29 -3 c-25 -3 -41 9 -117 84 l-89 89 0 -88 0 -87 -35 0 -35 0 0 140
0 140 33 0 c28 0 43 -12 114 -87 l82 -88 1 93 0 92 40 0 41 0 -3 -142z m382
112 l0 -30 -85 0 c-84 0 -85 0 -85 -25 0 -24 2 -25 70 -25 l70 0 0 -30 0 -30
-70 0 c-67 0 -70 -1 -70 -24 0 -22 4 -24 83 -31 l83 -6 -4 -31 -5 -31 -66 7
c-36 3 -90 6 -118 6 l-53 0 0 140 0 140 125 0 125 0 0 -30z m2513 23 c-7 -2
-19 -2 -25 0 -7 3 -2 5 12 5 14 0 19 -2 13 -5z m-3333 -148 l0 -145 -35 0 -35
0 0 138 c0 76 3 142 7 145 3 4 19 7 35 7 l28 0 0 -145z m1353 122 c34 -22 45
-63 26 -96 -13 -23 -13 -28 3 -43 22 -22 23 -67 4 -94 -13 -17 -29 -19 -140
-22 l-126 -4 0 142 0 142 103 -4 c77 -2 110 -8 130 -21z m2050 16 c-7 -2 -19
-2 -25 0 -7 3 -2 5 12 5 14 0 19 -2 13 -5z m-5940 -64 c-5 -5 -7 7 -4 29 5 34
6 35 9 8 2 -16 0 -32 -5 -37z m2337 -84 l0 -145 -38 0 c-33 0 -45 8 -112 75
l-75 76 -5 -83 -5 -83 -32 -3 -33 -3 0 140 0 141 32 0 c27 0 46 -13 115 -82
l83 -83 0 92 0 92 33 4 c17 2 33 5 35 5 1 1 2 -63 2 -143z m1821 83 c23 -35
44 -65 47 -68 2 -3 28 21 56 54 52 58 53 59 91 50 l39 -9 -72 -79 c-70 -78
-72 -80 -72 -133 l0 -53 -40 0 -40 0 0 54 c0 48 -5 59 -48 117 -26 35 -58 79
-71 97 l-22 32 45 0 c44 0 46 -1 87 -62z m1846 56 c-3 -3 -12 -4 -19 -1 -8 3
-5 6 6 6 11 1 17 -2 13 -5z m100 -20 c-3 -3 -12 -4 -19 -1 -8 3 -5 6 6 6 11 1
17 -2 13 -5z m48 -12 c-3 -3 -11 0 -18 7 -9 10 -8 11 6 5 10 -3 15 -9 12 -12z
m-1482 -18 l87 -7 0 -31 0 -31 -55 3 -55 4 0 -111 0 -111 -35 0 -35 0 0 114 0
115 -55 6 c-48 6 -55 10 -55 29 0 34 10 39 65 32 28 -3 89 -8 138 -12z m-2982
-98 c-65 -94 -71 -108 -71 -153 0 -51 0 -51 -35 -55 -20 -2 -38 -2 -40 1 -3 2
-5 24 -5 49 0 40 -6 51 -70 123 -38 44 -70 84 -70 89 0 6 11 10 24 10 13 0 31
3 40 6 10 4 30 -14 62 -55 26 -34 50 -61 53 -61 3 0 26 34 50 75 45 75 45 75
88 75 l44 0 -70 -104z m3392 44 c12 0 17 -8 17 -31 l0 -32 -62 7 c-35 4 -73
10 -85 13 -20 4 -23 1 -23 -25 0 -29 2 -30 53 -37 82 -10 87 -13 87 -47 0 -29
-1 -30 -32 -24 -104 21 -108 20 -108 -7 0 -28 2 -29 103 -47 65 -12 67 -13 67
-42 0 -28 -2 -30 -27 -25 -16 3 -70 11 -120 18 l-93 13 0 146 0 147 103 -13
c56 -7 110 -13 120 -14z m-3813 -40 c24 -24 27 -82 5 -100 -14 -11 -13 -14 5
-27 38 -27 16 -103 -39 -136 -26 -15 -161 -47 -201 -47 -20 0 -20 4 -18 152
l3 153 70 11 c113 18 152 17 175 -6z m4495 -75 c0 -54 -4 -80 -12 -82 -10 -4
-13 17 -13 82 0 65 3 86 13 83 8 -3 12 -29 12 -83z m-5175 -6 c0 -51 -4 -78
-10 -74 -5 3 -10 40 -10 81 0 43 4 74 10 74 6 0 10 -34 10 -81z m4806 62 c52
-24 57 -32 38 -60 l-16 -22 -34 21 c-38 24 -87 23 -92 -1 -2 -10 21 -27 71
-52 100 -50 123 -101 71 -154 -22 -22 -32 -25 -77 -21 -29 3 -78 17 -110 31
l-59 27 21 29 22 30 36 -25 c42 -28 76 -39 98 -30 33 12 14 37 -48 65 -77 35
-111 73 -103 116 3 16 16 38 27 48 28 23 102 22 155 -2z m-5206 -358 l1 -258
87 -53 c48 -29 120 -80 160 -113 l72 -61 0 -234 0 -235 -31 18 c-37 21 -224
180 -326 277 -52 48 -82 88 -105 135 l-33 66 -3 321 -3 322 83 35 c46 20 86
36 91 36 4 1 7 -115 7 -256z m6060 222 l85 -34 3 -98 c1 -54 -1 -201 -6 -328
-8 -218 -9 -233 -34 -285 -14 -30 -43 -74 -65 -97 -49 -53 -288 -262 -348
-303 l-45 -31 0 234 0 234 68 54 c37 30 107 81 155 113 l87 60 0 258 c0 142 3
258 8 258 4 0 45 -16 92 -35z m-5638 -105 c54 -15 88 -61 88 -117 0 -80 -51
-133 -127 -133 -73 1 -123 52 -123 128 0 54 23 90 75 113 48 22 41 21 87 9z
m5214 -9 c68 -31 94 -114 54 -178 -53 -88 -178 -83 -225 7 -33 63 -5 148 58
175 43 19 64 18 113 -4z m-2558 -18 c73 -54 95 -155 51 -233 -60 -107 -220
-105 -284 3 -69 119 23 267 158 254 27 -2 61 -13 75 -24z m-2093 -206 c37 -53
-9 -137 -75 -137 -41 0 -90 47 -90 87 0 82 117 118 165 50z m4129 21 c15 -13
29 -38 32 -55 6 -28 1 -38 -30 -69 -31 -31 -41 -36 -68 -30 -38 8 -76 40 -80
70 -14 82 85 138 146 84z m-3623 -17 c56 -57 23 -141 -56 -141 -42 0 -95 44
-95 80 0 82 92 119 151 61z m3104 4 c53 -53 14 -145 -62 -145 -38 0 -93 45
-93 75 0 24 27 73 47 84 33 19 82 13 108 -14z m-2060 -185 c3 -5 46 -46 95
-90 l90 -80 260 0 259 0 102 90 c56 50 105 90 109 90 4 0 15 -9 26 -21 19 -21
18 -21 -69 -106 -138 -132 -107 -123 -424 -123 -149 0 -282 4 -295 9 -13 5
-69 52 -124 105 l-99 95 25 21 c28 22 36 24 45 10z m-1700 -174 c99 -47 135
-70 136 -83 0 -14 235 -135 1005 -520 l1005 -502 127 63 c70 35 449 225 842
423 393 198 790 396 883 439 140 66 167 82 167 100 0 18 23 32 133 83 73 33
136 61 140 61 4 0 7 -47 7 -103 l0 -104 -502 -253 c-409 -206 -1001 -508
-1717 -876 l-83 -43 -72 36 c-39 19 -339 174 -666 343 -327 169 -782 402
-1010 517 -228 116 -443 226 -477 245 l-63 33 0 103 c0 56 2 102 5 102 2 0 65
-29 140 -64z m649 22 c15 -13 29 -37 32 -55 5 -27 1 -37 -24 -63 -34 -34 -67
-38 -112 -15 -57 29 -65 81 -21 126 37 37 88 39 125 7z m3121 -3 c35 -34 33
-78 -4 -116 -20 -20 -39 -29 -61 -29 -40 0 -90 47 -90 85 0 16 12 38 29 56 38
38 91 40 126 4z"/>
<path d="M4723 7351 c-62 -3 -117 -11 -123 -17 -8 -8 12 -30 74 -80 48 -38 86
-73 85 -79 0 -5 -34 -38 -75 -73 l-74 -63 0 -295 c0 -162 3 -294 8 -294 4 0
33 -23 65 -50 l59 -50 335 0 334 0 65 53 64 52 0 292 0 292 -80 68 c-44 37
-80 70 -80 74 0 3 40 34 89 70 50 35 90 67 90 70 1 3 -15 13 -34 22 -32 15
-74 17 -363 15 -180 -1 -377 -4 -439 -7z m457 -461 c79 -56 83 -198 8 -267
-116 -108 -301 2 -274 165 19 118 165 174 266 102z"/>
<path d="M7670 5409 c-41 -5 -111 -12 -155 -16 l-80 -8 -5 -169 c-4 -129 -2
-173 8 -187 12 -17 29 -19 203 -19 l189 0 0 205 0 205 -42 -1 c-24 -1 -77 -5
-118 -10z"/>
<path d="M7429 4728 c-5 -42 4 -364 10 -371 7 -7 118 -22 324 -45 l77 -8 0
177 c0 124 3 178 11 181 9 3 9 9 0 25 -27 53 -30 53 -232 53 -144 0 -189 -3
-190 -12z"/>
<path d="M2348 4663 c17 -2 47 -2 65 0 17 2 3 4 -33 4 -36 0 -50 -2 -32 -4z"/>
<path d="M2322 4100 c0 -14 2 -19 5 -12 2 6 2 18 0 25 -3 6 -5 1 -5 -13z"/>
<path d="M6372 5118 l3 -173 55 -3 c80 -5 178 7 195 25 20 19 22 292 3 311 -8
8 -53 12 -135 12 l-123 0 2 -172z"/>
<path d="M6161 4666 c7 -8 139 -10 146 -3 3 4 -29 7 -72 7 -43 0 -76 -2 -74
-4z"/>
<path d="M6302 4570 c0 -19 2 -27 5 -17 2 9 2 25 0 35 -3 9 -5 1 -5 -18z"/>
<path d="M4104 4455 c-1 -118 1 -215 5 -215 3 0 6 90 6 200 l0 200 46 0 46 0
6 -55 c6 -61 -8 -105 -35 -105 -11 0 -18 -8 -18 -20 0 -13 7 -20 19 -20 13 0
20 -9 24 -32 3 -18 10 -52 15 -75 7 -34 7 -43 -4 -43 -8 0 -14 -9 -14 -20 0
-27 26 -25 34 3 3 12 6 106 6 210 l0 187 -68 0 -67 0 -1 -215z"/>
<path d="M4140 4300 c0 -47 2 -50 25 -50 16 0 25 6 25 15 0 8 -7 15 -15 15
-10 0 -15 11 -15 35 0 19 -4 35 -10 35 -5 0 -10 -22 -10 -50z"/>
<path d="M4542 4473 c1 -132 4 -176 8 -133 5 53 7 57 8 23 l2 -43 120 0 120 0
0 40 0 40 -60 0 -59 0 5 135 5 135 -76 0 -75 0 2 -197z"/>
<path d="M4613 4263 c9 -2 25 -2 35 0 9 3 1 5 -18 5 -19 0 -27 -2 -17 -5z"/>
<path d="M5640 3941 c0 -30 2 -31 43 -31 51 0 70 11 65 36 -2 15 -14 20 -56
22 l-52 3 0 -30z"/>
<path d="M5640 3835 c0 -24 3 -25 59 -25 34 0 63 5 67 12 12 19 -27 38 -78 38
-45 0 -48 -2 -48 -25z"/>
<path d="M3045 3821 c-36 -5 -40 -9 -43 -37 l-3 -32 48 9 c59 11 82 31 63 53
-7 9 -15 15 -19 15 -3 -1 -24 -5 -46 -8z"/>
<path d="M3065 3705 c-5 -2 -22 -6 -37 -9 -23 -5 -28 -12 -28 -37 0 -29 1 -30
33 -24 53 12 82 29 82 50 0 19 -25 29 -50 20z"/>
</g>
</svg>
